<?xml version="1.0" encoding="UTF-8"?>
<svg width="21px" height="22px" viewBox="0 0 21 22" version="1.1" xmlns="http://www.w3.org/2000/svg" xmlns:xlink="http://www.w3.org/1999/xlink">
    <title>􀎺</title>
    <g id="Page-1" stroke="none" stroke-width="1" fill="none" fill-rule="evenodd">
        <g id="Main-View" transform="translate(-343.000000, -76.000000)" fill="#000000" fill-rule="nonzero">
            <g id="Group-9" transform="translate(16.000000, 63.000000)">
                <g id="Group-4" transform="translate(317.000000, 3.500000)">
                    <g id="􀎺" transform="translate(10.228006, 10.455566)">
                        <path d="M1.00488281,6.82910156 C1.66113281,6.82910156 2.00976562,6.47021484 2.00976562,5.81396484 L2.00976562,3.49658203 C2.00976562,2.50195312 2.53271484,2.00976562 3.48632812,2.00976562 L5.85498047,2.00976562 C6.51123047,2.00976562 6.87011719,1.65087891 6.87011719,1.00488281 C6.87011719,0.358886719 6.51123047,0 5.85498047,0 L3.36328125,0 C1.1484375,0 0,1.13818359 0,3.32226562 L0,5.81396484 C0,6.47021484 0.358886719,6.82910156 1.00488281,6.82910156 Z M19.3081055,6.82910156 C19.9643555,6.82910156 20.3129883,6.47021484 20.3129883,5.81396484 L20.3129883,3.32226562 C20.3129883,1.13818359 19.1645508,0 16.949707,0 L14.4580078,0 C13.8017578,0 13.4428711,0.358886719 13.4428711,1.00488281 C13.4428711,1.65087891 13.8017578,2.00976562 14.4580078,2.00976562 L16.8266602,2.00976562 C17.7700195,2.00976562 18.3032227,2.50195312 18.3032227,3.49658203 L18.3032227,5.81396484 C18.3032227,6.47021484 18.6621094,6.82910156 19.3081055,6.82910156 Z M5.49609375,14.3452148 L6.22412109,14.3452148 L6.22412109,5.96777344 L5.49609375,5.96777344 L5.49609375,14.3452148 Z M7.14697266,14.3452148 L8.53125,14.3452148 L8.53125,5.96777344 L7.14697266,5.96777344 L7.14697266,14.3452148 Z M9.14648438,14.3452148 L10.0078125,14.3452148 L10.0078125,5.96777344 L9.14648438,5.96777344 L9.14648438,14.3452148 Z M10.7871094,14.3452148 L12.1303711,14.3452148 L12.1303711,5.96777344 L10.7871094,5.96777344 L10.7871094,14.3452148 Z M12.6738281,14.3452148 L13.7504883,14.3452148 L13.7504883,5.96777344 L12.6738281,5.96777344 L12.6738281,14.3452148 Z M14.1401367,14.3452148 L14.8168945,14.3452148 L14.8168945,5.96777344 L14.1401367,5.96777344 L14.1401367,14.3452148 Z M3.36328125,20.3129883 L5.85498047,20.3129883 C6.51123047,20.3129883 6.87011719,19.9541016 6.87011719,19.3081055 C6.87011719,18.6621094 6.51123047,18.3032227 5.85498047,18.3032227 L3.48632812,18.3032227 C2.53271484,18.3032227 2.00976562,17.8110352 2.00976562,16.8061523 L2.00976562,14.4887695 C2.00976562,13.8325195 1.65087891,13.4736328 1.00488281,13.4736328 C0.348632812,13.4736328 0,13.8325195 0,14.4887695 L0,16.9804688 C0,19.1748047 1.1484375,20.3129883 3.36328125,20.3129883 Z M14.4580078,20.3129883 L16.949707,20.3129883 C19.1645508,20.3129883 20.3129883,19.1748047 20.3129883,16.9804688 L20.3129883,14.4887695 C20.3129883,13.8325195 19.9541016,13.4736328 19.3081055,13.4736328 C18.6518555,13.4736328 18.3032227,13.8427734 18.3032227,14.4887695 L18.3032227,16.8061523 C18.3032227,17.8110352 17.7700195,18.3032227 16.8266602,18.3032227 L14.4580078,18.3032227 C13.8017578,18.3032227 13.4428711,18.6621094 13.4428711,19.3081055 C13.4428711,19.9541016 13.8017578,20.3129883 14.4580078,20.3129883 Z" id="Shape"></path>
                    </g>
                </g>
            </g>
        </g>
    </g>
</svg>