<?xml version="1.0" encoding="UTF-8"?>
<svg width="17px" height="16px" viewBox="0 0 17 16" version="1.1" xmlns="http://www.w3.org/2000/svg" xmlns:xlink="http://www.w3.org/1999/xlink">
    <title>􀊫</title>
    <g id="Page-1" stroke="none" stroke-width="1" fill="none" fill-rule="evenodd">
        <g id="Main-View" transform="translate(-24.000000, -146.000000)" fill="#959599" fill-rule="nonzero">
            <g id="Group-9" transform="translate(16.000000, 63.000000)">
                <g id="Group-6" transform="translate(0.000000, 73.000000)">
                    <g id="􀊫" transform="translate(8.400635, 10.121094)">
                        <path d="M6.38330078,11.3886719 C7.0694987,11.3886719 7.71419271,11.2572428 8.31738281,10.9943848 C8.92057292,10.7315267 9.45182292,10.3704427 9.91113281,9.91113281 C10.3704427,9.45182292 10.7315267,8.92057292 10.9943848,8.31738281 C11.2572428,7.71419271 11.3886719,7.0694987 11.3886719,6.38330078 C11.3886719,5.69710286 11.2572428,5.05240885 10.9943848,4.44921875 C10.7315267,3.84602865 10.3704427,3.31339518 9.91113281,2.85131836 C9.45182292,2.38924154 8.92057292,2.02815755 8.31738281,1.76806641 C7.71419271,1.50797526 7.0694987,1.37792969 6.38330078,1.37792969 C5.69710286,1.37792969 5.05240885,1.50797526 4.44921875,1.76806641 C3.84602865,2.02815755 3.31339518,2.38924154 2.85131836,2.85131836 C2.38924154,3.31339518 2.02815755,3.84602865 1.76806641,4.44921875 C1.50797526,5.05240885 1.37792969,5.69710286 1.37792969,6.38330078 C1.37792969,7.0694987 1.50797526,7.71419271 1.76806641,8.31738281 C2.02815755,8.92057292 2.38924154,9.45182292 2.85131836,9.91113281 C3.31339518,10.3704427 3.84602865,10.7315267 4.44921875,10.9943848 C5.05240885,11.2572428 5.69710286,11.3886719 6.38330078,11.3886719 Z M6.38330078,12.7666016 C5.50341797,12.7666016 4.6788737,12.6005859 3.90966797,12.2685547 C3.14046224,11.9365234 2.4625651,11.4772135 1.87597656,10.890625 C1.28938802,10.3040365 0.830078125,9.62613932 0.498046875,8.85693359 C0.166015625,8.08772786 0,7.26318359 0,6.38330078 C0,5.50341797 0.166015625,4.67749023 0.498046875,3.90551758 C0.830078125,3.13354492 1.28938802,2.45564779 1.87597656,1.87182617 C2.4625651,1.28800456 3.1418457,0.830078125 3.91381836,0.498046875 C4.68579102,0.166015625 5.50895182,0 6.38330078,0 C7.26318359,0 8.08772786,0.166015625 8.85693359,0.498046875 C9.62613932,0.830078125 10.3040365,1.28938802 10.890625,1.87597656 C11.4772135,2.4625651 11.9365234,3.14046224 12.2685547,3.90966797 C12.6005859,4.6788737 12.7666016,5.50341797 12.7666016,6.38330078 C12.7666016,7.26318359 12.6005859,8.08772786 12.2685547,8.85693359 C11.9365234,9.62613932 11.4772135,10.3040365 10.890625,10.890625 C10.3040365,11.4772135 9.62613932,11.9365234 8.85693359,12.2685547 C8.08772786,12.6005859 7.26318359,12.7666016 6.38330078,12.7666016 Z M14.7089844,15.7797852 C14.5817057,15.7797852 14.4599609,15.7576497 14.34375,15.7133789 C14.2275391,15.6691081 14.1223958,15.5999349 14.0283203,15.5058594 L9.62060547,11.0898438 L10.9819336,9.77832031 L15.3647461,14.1694336 C15.4588216,14.2579753 15.5266113,14.3603516 15.5681152,14.4765625 C15.6096191,14.5927734 15.6303711,14.7117513 15.6303711,14.8334961 C15.6303711,15.0105794 15.5902507,15.1696777 15.5100098,15.310791 C15.4297689,15.4519043 15.3204753,15.5653483 15.1821289,15.651123 C15.0437826,15.7368978 14.8860677,15.7797852 14.7089844,15.7797852 Z" id="Shape"></path>
                    </g>
                </g>
            </g>
        </g>
    </g>
</svg>